{
  "accessors": [
    {
      "bufferView": 2,
      "componentType": 5126,
      "count": 3522,
      "max": [
        4.727901935577393,
        4.727901935577393,
        9.08403491973877
      ],
      "min": [
        -4.727901935577393,
        -4.727901935577393,
        -9.084033966064453
      ],
      "type": "VEC3"
    },
    {
      "bufferView": 2,
      "byteOffset": 42264,
      "componentType": 5126,
      "count": 3522,
      "max": [
        1.0,
        1.0,
        1.0
      ],
      "min": [
        -1.0,
        -1.0,
        -1.0
      ],
      "type": "VEC3"
    },
    {
      "bufferView": 3,
      "componentType": 5126,
      "count": 3522,
      "max": [
        0.9999990463256836,
        0.9997148513793945,
        0.77921462059021,
        1.0
      ],
      "min": [
        -1.0,
        -0.9999945163726807,
        -1.0,
        1.0
      ],
      "type": "VEC4"
    },
    {
      "bufferView": 1,
      "componentType": 5126,
      "count": 3522,
      "max": [
        0.8038787245750427,
        0.9953871369361877
      ],
      "min": [
        0.003864621976390481,
        0.008353014476597309
      ],
      "type": "VEC2"
    },
    {
      "bufferView": 1,
      "byteOffset": 28176,
      "componentType": 5126,
      "count": 3522,
      "max": [
        0.8038787245750427,
        0.9953871369361877
      ],
      "min": [
        0.003864621976390481,
        0.008353014476597309
      ],
      "type": "VEC2"
    },
    {
      "bufferView": 1,
      "byteOffset": 56352,
      "componentType": 5126,
      "count": 3522,
      "max": [
        0.8038787245750427,
        0.9953871369361877
      ],
      "min": [
        0.003864621976390481,
        0.008353014476597309
      ],
      "type": "VEC2"
    },
    {
      "bufferView": 0,
      "componentType": 5125,
      "count": 14178,
      "type": "SCALAR"
    }
  ],
  "asset": {
    "extras": {
      "author": "plaggy (https://sketchfab.com/plaggy)",
      "license": "CC-BY-4.0 (http://creativecommons.org/licenses/by/4.0/)",
      "source": "https://sketchfab.com/3d-models/cc0-table-lamp-7-2de8c76c71504ab9add386fce27204c8",
      "title": "CC0 - Table Lamp 7"
    },
    "generator": "Sketchfab-15.30.0",
    "version": "2.0"
  },
  "bufferViews": [
    {
      "buffer": 0,
      "byteLength": 56712,
      "name": "floatBufferViews",
      "target": 34963
    },
    {
      "buffer": 0,
      "byteLength": 84528,
      "byteOffset": 56712,
      "byteStride": 8,
      "name": "floatBufferViews",
      "target": 34962
    },
    {
      "buffer": 0,
      "byteLength": 84528,
      "byteOffset": 141240,
      "byteStride": 12,
      "name": "floatBufferViews",
      "target": 34962
    },
    {
      "buffer": 0,
      "byteLength": 56352,
      "byteOffset": 225768,
      "byteStride": 16,
      "name": "floatBufferViews",
      "target": 34962
    }
  ],
  "buffers": [
    {
      "byteLength": 282120,
      "uri": "scene.bin"
    }
  ],
  "images": [
    {
      "uri": "textures/TableLamp7_baseColor.png"
    },
    {
      "uri": "textures/TableLamp7_metallicRoughness.png"
    },
    {
      "uri": "textures/TableLamp7_normal.png"
    }
  ],
  "materials": [
    {
      "name": "TableLamp7",
      "normalTexture": {
        "index": 2
      },
      "occlusionTexture": {
        "index": 1
      },
      "pbrMetallicRoughness": {
        "baseColorTexture": {
          "index": 0
        },
        "metallicRoughnessTexture": {
          "index": 1
        }
      }
    }
  ],
  "meshes": [
    {
      "name": "TableLamp7_TableLamp7_0",
      "primitives": [
        {
          "attributes": {
            "NORMAL": 1,
            "POSITION": 0,
            "TANGENT": 2,
            "TEXCOORD_0": 3,
            "TEXCOORD_1": 4,
            "TEXCOORD_2": 5
          },
          "indices": 6,
          "material": 0,
          "mode": 4
        }
      ]
    }
  ],
  "nodes": [
    {
      "children": [
        1
      ],
      "matrix": [
        1.0,
        0.0,
        0.0,
        0.0,
        0.0,
        2.220446049250313e-16,
        -1.0,
        0.0,
        0.0,
        1.0,
        2.220446049250313e-16,
        0.0,
        0.0,
        0.0,
        0.0,
        1.0
      ],
      "name": "Sketchfab_model"
    },
    {
      "children": [
        2
      ],
      "matrix": [
        0.02539999969303608,
        0.0,
        0.0,
        0.0,
        0.0,
        0.0,
        0.02539999969303608,
        0.0,
        0.0,
        -0.02539999969303608,
        0.0,
        0.0,
        0.0,
        0.0,
        0.0,
        1.0
      ],
      "name": "f146dd6c48e249318b730a115aeb0f88.fbx"
    },
    {
      "children": [
        3
      ],
      "name": "RootNode"
    },
    {
      "children": [
        4
      ],
      "matrix": [
        1.0,
        0.0,
        0.0,
        0.0,
        0.0,
        2.220446049250313e-16,
        -1.0,
        0.0,
        0.0,
        1.0,
        2.220446049250313e-16,
        0.0,
        1.1920928955078125e-07,
        0.0,
        -1.19706186296753e-07,
        1.0
      ],
      "name": "TableLamp7"
    },
    {
      "mesh": 0,
      "name": "TableLamp7_TableLamp7_0"
    }
  ],
  "samplers": [
    {
      "magFilter": 9729,
      "minFilter": 9987,
      "wrapS": 10497,
      "wrapT": 10497
    }
  ],
  "scene": 0,
  "scenes": [
    {
      "name": "Sketchfab_Scene",
      "nodes": [
        0
      ]
    }
  ],
  "textures": [
    {
      "sampler": 0,
      "source": 0
    },
    {
      "sampler": 0,
      "source": 1
    },
    {
      "sampler": 0,
      "source": 2
    }
  ]
}
