{
  "accessors": [
    {
      "bufferView": 2,
      "componentType": 5126,
      "count": 13046,
      "max": [
        23.739185333251953,
        30.96392822265625,
        263.2638244628906
      ],
      "min": [
        -23.739185333251953,
        -30.963912963867188,
        0.0
      ],
      "type": "VEC3"
    },
    {
      "bufferView": 2,
      "byteOffset": 156552,
      "componentType": 5126,
      "count": 13046,
      "max": [
        1.0,
        1.0,
        1.0
      ],
      "min": [
        -1.0,
        -1.0,
        -1.0
      ],
      "type": "VEC3"
    },
    {
      "bufferView": 3,
      "componentType": 5126,
      "count": 13046,
      "max": [
        1.0,
        1.0,
        1.0,
        1.0
      ],
      "min": [
        -1.0,
        -1.0,
        -1.0,
        -1.0
      ],
      "type": "VEC4"
    },
    {
      "bufferView": 1,
      "componentType": 5126,
      "count": 13046,
      "max": [
        0.9861419796943665,
        0.9900000095367432
      ],
      "min": [
        0.009999999776482582,
        0.009999999776482582
      ],
      "type": "VEC2"
    },
    {
      "bufferView": 0,
      "componentType": 5125,
      "count": 32949,
      "type": "SCALAR"
    },
    {
      "bufferView": 2,
      "byteOffset": 313104,
      "componentType": 5126,
      "count": 151,
      "max": [
        1.652031421661377,
        20.27364730834961,
        22.029502868652344
      ],
      "min": [
        -0.24110674858093262,
        -20.369226455688477,
        -22.029518127441406
      ],
      "type": "VEC3"
    },
    {
      "bufferView": 2,
      "byteOffset": 314916,
      "componentType": 5126,
      "count": 151,
      "max": [
        1.0,
        1.0,
        1.0
      ],
      "min": [
        0.0,
        -1.0,
        -1.0
      ],
      "type": "VEC3"
    },
    {
      "bufferView": 3,
      "byteOffset": 208736,
      "componentType": 5126,
      "count": 151,
      "max": [
        1.0,
        1.0,
        1.0,
        1.0
      ],
      "min": [
        -1.0,
        -1.0,
        -1.0,
        -1.0
      ],
      "type": "VEC4"
    },
    {
      "bufferView": 1,
      "byteOffset": 104368,
      "componentType": 5126,
      "count": 151,
      "max": [
        0.9987768530845642,
        0.9999997615814209
      ],
      "min": [
        0.0008243477204814553,
        -1.7881393432617188e-07
      ],
      "type": "VEC2"
    },
    {
      "bufferView": 0,
      "byteOffset": 131796,
      "componentType": 5125,
      "count": 588,
      "type": "SCALAR"
    },
    {
      "bufferView": 2,
      "byteOffset": 316728,
      "componentType": 5126,
      "count": 24,
      "max": [
        0.06187991797924042,
        25.482912063598633,
        68.52471923828125
      ],
      "min": [
        -30.866283416748047,
        -25.471561431884766,
        -97.93489074707031
      ],
      "type": "VEC3"
    },
    {
      "bufferView": 2,
      "byteOffset": 317016,
      "componentType": 5126,
      "count": 24,
      "max": [
        1.0,
        1.0,
        4.716823553962968e-08
      ],
      "min": [
        -7.649602906667496e-08,
        -1.0,
        -3.8398468404921005e-07
      ],
      "type": "VEC3"
    },
    {
      "bufferView": 1,
      "byteOffset": 105576,
      "componentType": 5126,
      "count": 24,
      "max": [
        0.999500036239624,
        0.9113938808441162
      ],
      "min": [
        0.0005000000237487257,
        0.0005000000237487257
      ],
      "type": "VEC2"
    },
    {
      "bufferView": 0,
      "byteOffset": 134148,
      "componentType": 5125,
      "count": 42,
      "type": "SCALAR"
    },
    {
      "bufferView": 2,
      "byteOffset": 317304,
      "componentType": 5126,
      "count": 16,
      "max": [
        -4.76837158203125e-05,
        16.2364559173584,
        16.2364559173584
      ],
      "min": [
        -5.14984130859375e-05,
        -16.2364559173584,
        -16.2364559173584
      ],
      "type": "VEC3"
    },
    {
      "bufferView": 2,
      "byteOffset": 317496,
      "componentType": 5126,
      "count": 16,
      "max": [
        1.0,
        7.716275831626263e-07,
        7.716263894508302e-07
      ],
      "min": [
        1.0,
        -6.023626042406249e-08,
        -6.02362248969257e-08
      ],
      "type": "VEC3"
    },
    {
      "bufferView": 1,
      "byteOffset": 105768,
      "componentType": 5126,
      "count": 16,
      "max": [
        0.9900000095367432,
        0.9899998903274536
      ],
      "min": [
        0.009999999776482582,
        0.009999999776482582
      ],
      "type": "VEC2"
    },
    {
      "bufferView": 0,
      "byteOffset": 134316,
      "componentType": 5125,
      "count": 42,
      "type": "SCALAR"
    }
  ],
  "asset": {
    "extras": {
      "author": "Lyskilde (https://sketchfab.com/longtail)",
      "license": "CC-BY-4.0 (http://creativecommons.org/licenses/by/4.0/)",
      "source": "https://sketchfab.com/3d-models/grandfather-clock-cef39f1bd3df43578236f273f273a873",
      "title": "Grandfather Clock"
    },
    "generator": "Sketchfab-14.35.0",
    "version": "2.0"
  },
  "bufferViews": [
    {
      "buffer": 0,
      "byteLength": 134484,
      "name": "floatBufferViews",
      "target": 34963
    },
    {
      "buffer": 0,
      "byteLength": 105896,
      "byteOffset": 134484,
      "byteStride": 8,
      "name": "floatBufferViews",
      "target": 34962
    },
    {
      "buffer": 0,
      "byteLength": 317688,
      "byteOffset": 240380,
      "byteStride": 12,
      "name": "floatBufferViews",
      "target": 34962
    },
    {
      "buffer": 0,
      "byteLength": 211152,
      "byteOffset": 558068,
      "byteStride": 16,
      "name": "floatBufferViews",
      "target": 34962
    }
  ],
  "buffers": [
    {
      "byteLength": 769220,
      "uri": "scene.bin"
    }
  ],
  "images": [
    {
      "uri": "textures/ClockCase_baseColor.png"
    },
    {
      "uri": "textures/ClockCase_metallicRoughness.png"
    },
    {
      "uri": "textures/ClockCase_normal.png"
    },
    {
      "uri": "textures/Clockface_baseColor.png"
    },
    {
      "uri": "textures/Clockface_metallicRoughness.png"
    },
    {
      "uri": "textures/Clockface_normal.png"
    },
    {
      "uri": "textures/MoonDial_baseColor.png"
    }
  ],
  "materials": [
    {
      "doubleSided": true,
      "name": "ClockCase",
      "normalTexture": {
        "index": 2
      },
      "occlusionTexture": {
        "index": 1
      },
      "pbrMetallicRoughness": {
        "baseColorTexture": {
          "index": 0
        },
        "metallicRoughnessTexture": {
          "index": 1
        }
      }
    },
    {
      "alphaMode": "BLEND",
      "doubleSided": true,
      "name": "Clockface",
      "normalTexture": {
        "index": 5
      },
      "pbrMetallicRoughness": {
        "baseColorTexture": {
          "index": 3
        },
        "metallicRoughnessTexture": {
          "index": 4
        }
      }
    },
    {
      "alphaMode": "BLEND",
      "doubleSided": true,
      "name": "Glass",
      "pbrMetallicRoughness": {
        "baseColorFactor": [
          1.0,
          1.0,
          1.0,
          0.05
        ],
        "roughnessFactor": 0.09917074368612931
      }
    },
    {
      "doubleSided": true,
      "name": "MoonDial",
      "pbrMetallicRoughness": {
        "baseColorTexture": {
          "index": 6
        },
        "roughnessFactor": 0.5
      }
    }
  ],
  "meshes": [
    {
      "name": "ClockCase_ClockCase_0",
      "primitives": [
        {
          "attributes": {
            "NORMAL": 1,
            "POSITION": 0,
            "TANGENT": 2,
            "TEXCOORD_0": 3
          },
          "indices": 4,
          "material": 0,
          "mode": 4
        }
      ]
    },
    {
      "name": "Clockface_Clockface_0",
      "primitives": [
        {
          "attributes": {
            "NORMAL": 6,
            "POSITION": 5,
            "TANGENT": 7,
            "TEXCOORD_0": 8
          },
          "indices": 9,
          "material": 1,
          "mode": 4
        }
      ]
    },
    {
      "name": "Glass_Glass_0",
      "primitives": [
        {
          "attributes": {
            "NORMAL": 11,
            "POSITION": 10,
            "TEXCOORD_0": 12
          },
          "indices": 13,
          "material": 2,
          "mode": 4
        }
      ]
    },
    {
      "name": "MoonDial_MoonDial_0",
      "primitives": [
        {
          "attributes": {
            "NORMAL": 15,
            "POSITION": 14,
            "TEXCOORD_0": 16
          },
          "indices": 17,
          "material": 3,
          "mode": 4
        }
      ]
    }
  ],
  "nodes": [
    {
      "children": [
        1
      ],
      "matrix": [
        1.0,
        0.0,
        0.0,
        0.0,
        0.0,
        2.220446049250313e-16,
        -1.0,
        0.0,
        0.0,
        1.0,
        2.220446049250313e-16,
        0.0,
        0.0,
        0.0,
        0.0,
        1.0
      ],
      "name": "Sketchfab_model"
    },
    {
      "children": [
        2
      ],
      "matrix": [
        1.0,
        0.0,
        0.0,
        0.0,
        0.0,
        0.0,
        1.0,
        0.0,
        0.0,
        -1.0,
        0.0,
        0.0,
        0.0,
        0.0,
        0.0,
        1.0
      ],
      "name": "f9c495c0d5564fc8939b332d680bb6ce.fbx"
    },
    {
      "children": [
        3,
        5,
        7,
        9
      ],
      "name": "RootNode"
    },
    {
      "children": [
        4
      ],
      "matrix": [
        1.0,
        0.0,
        0.0,
        0.0,
        0.0,
        -1.6292067939183141e-07,
        -0.9999999999999868,
        0.0,
        0.0,
        0.9999999999999868,
        -1.6292067939183141e-07,
        0.0,
        0.0,
        0.0,
        0.0,
        1.0
      ],
      "name": "ClockCase"
    },
    {
      "mesh": 0,
      "name": "ClockCase_ClockCase_0"
    },
    {
      "children": [
        6
      ],
      "matrix": [
        1.0,
        0.0,
        0.0,
        0.0,
        0.0,
        -1.6292067939183141e-07,
        -0.9999999999999868,
        0.0,
        0.0,
        0.9999999999999868,
        -1.6292067939183141e-07,
        0.0,
        16.478551864624023,
        176.5380096435547,
        0.005706787109375,
        1.0
      ],
      "name": "Clockface"
    },
    {
      "mesh": 1,
      "name": "Clockface_Clockface_0"
    },
    {
      "children": [
        8
      ],
      "matrix": [
        1.0,
        0.0,
        0.0,
        0.0,
        0.0,
        -1.6292067939183141e-07,
        -0.9999999999999868,
        0.0,
        0.0,
        0.9999999999999868,
        -1.6292067939183141e-07,
        0.0,
        18.39930534362793,
        146.38412475585938,
        0.005706787109375,
        1.0
      ],
      "name": "Glass"
    },
    {
      "mesh": 2,
      "name": "Glass_Glass_0"
    },
    {
      "children": [
        10
      ],
      "matrix": [
        1.0,
        0.0,
        0.0,
        0.0,
        0.0,
        -1.6292067939183141e-07,
        -0.9999999999999868,
        0.0,
        0.0,
        0.9999999999999868,
        -1.6292067939183141e-07,
        0.0,
        16.41963768005371,
        198.77703857421875,
        0.005706787109375,
        1.0
      ],
      "name": "MoonDial"
    },
    {
      "mesh": 3,
      "name": "MoonDial_MoonDial_0"
    }
  ],
  "samplers": [
    {
      "magFilter": 9729,
      "minFilter": 9987,
      "wrapS": 10497,
      "wrapT": 10497
    }
  ],
  "scene": 0,
  "scenes": [
    {
      "name": "Sketchfab_Scene",
      "nodes": [
        0
      ]
    }
  ],
  "textures": [
    {
      "sampler": 0,
      "source": 0
    },
    {
      "sampler": 0,
      "source": 1
    },
    {
      "sampler": 0,
      "source": 2
    },
    {
      "sampler": 0,
      "source": 3
    },
    {
      "sampler": 0,
      "source": 4
    },
    {
      "sampler": 0,
      "source": 5
    },
    {
      "sampler": 0,
      "source": 6
    }
  ]
}
